<svg width="35" height="35" viewBox="0 0 35 35" fill="none" xmlns="http://www.w3.org/2000/svg">
<path fill-rule="evenodd" clip-rule="evenodd" d="M25.9338 15.1977C25.9338 15.1977 26.0894 15.9878 26.1425 15.9954C29.0072 16.4039 31.1567 18.0749 31.1567 21.0526C31.1567 24.316 28.5112 26.9615 25.2478 26.9615H10.0534C6.79004 26.9615 4.14453 24.316 4.14453 21.0526C4.14453 18.0749 6.34706 15.6117 9.21181 15.2031C9.26489 15.1956 9.3169 15.194 9.36737 15.1977C10.1285 11.3178 13.5477 8.39062 17.6506 8.39062C21.7535 8.39062 25.1727 11.3178 25.9338 15.1977Z" fill="#F3F3F3"/>
<path d="M10.5003 26.9615C6.99012 26.9615 4.14453 24.19 4.14453 20.7712C4.14453 17.785 6.31548 15.2927 9.20405 14.7098C10.1971 11.0714 13.6024 8.39062 17.6506 8.39062C22.227 8.39062 25.9819 11.8167 26.3587 16.1791C29.069 16.5414 31.1567 18.8058 31.1567 21.545C31.1567 24.5364 28.6668 26.9615 25.5953 26.9615H10.5003Z" stroke="#231815" stroke-width="1.5" stroke-linecap="round" stroke-linejoin="round"/>
</svg>
