<svg width="37" height="37" viewBox="0 0 37 37" fill="none" xmlns="http://www.w3.org/2000/svg">
<path d="M25.106 26.167C25.3989 26.4599 25.8738 26.4599 26.1667 26.167C26.4596 25.8741 26.4596 25.3992 26.1667 25.1063L25.106 26.167ZM12.8333 12.8336C10.1304 15.5364 10.1304 19.9186 12.8333 22.6215L13.894 21.5608C11.7769 19.4438 11.7769 16.0113 13.894 13.8942L12.8333 12.8336ZM22.6212 12.8336C19.9184 10.1307 15.5362 10.1307 12.8333 12.8336L13.894 13.8942C16.011 11.7772 19.4435 11.7772 21.5606 13.8942L22.6212 12.8336ZM22.6212 22.6215C25.3241 19.9186 25.3241 15.5364 22.6212 12.8336L21.5606 13.8942C23.6777 16.0113 23.6777 19.4438 21.5606 21.5608L22.6212 22.6215ZM21.5606 21.5608C19.4435 23.6779 16.011 23.6779 13.894 21.5608L12.8333 22.6215C15.5362 25.3244 19.9184 25.3244 22.6212 22.6215L21.5606 21.5608ZM26.1667 25.1063L22.6212 21.5608L21.5606 22.6215L25.106 26.167L26.1667 25.1063Z" fill="black"/>
</svg>
