<svg width="24" height="24" viewBox="0 0 24 24" fill="none" xmlns="http://www.w3.org/2000/svg">
<path d="M13.415 14.2658L18.3607 9.32013C18.6366 9.04423 18.6366 8.59687 18.3607 8.32097C18.0848 8.04503 17.6374 8.04503 17.3615 8.32097L12.9155 12.767L10.5889 10.4405C10.313 10.1646 9.86567 10.1646 9.58977 10.4405C9.31383 10.7164 9.31383 11.1638 9.58977 11.4397L12.4159 14.2658C12.6918 14.5417 13.1391 14.5418 13.415 14.2658Z" fill="#84C978" stroke="#84C978" stroke-width="0.5"/>
<path d="M9.88011 17.652H9.1025C9.01069 17.2016 8.83256 16.7825 8.58682 16.4118L9.13796 15.8607C9.4139 15.5847 9.4139 15.1374 9.13796 14.8615C8.86206 14.5856 8.41474 14.5856 8.1388 14.8615L7.58767 15.4127C7.21701 15.1669 6.79786 14.9888 6.3475 14.897V14.1194C6.3475 13.7292 6.03115 13.4128 5.64097 13.4128C5.2508 13.4128 4.93445 13.7292 4.93445 14.1194V14.897C4.48409 14.9888 4.06494 15.1669 3.69428 15.4127L3.14315 14.8615C2.86721 14.5856 2.41989 14.5856 2.14399 14.8615C1.86805 15.1374 1.86805 15.5848 2.14399 15.8607L2.69513 16.4118C2.44939 16.7825 2.27126 17.2016 2.17945 17.652H1.40184C1.01166 17.652 0.695312 17.9683 0.695312 18.3585C0.695312 18.7487 1.01166 19.065 1.40184 19.065H2.17945C2.27126 19.5154 2.44939 19.9345 2.69513 20.3052L2.14399 20.8563C1.86805 21.1323 1.86805 21.5796 2.14399 21.8555C2.41985 22.1314 2.86721 22.1314 3.14315 21.8555L3.69428 21.3043C4.06494 21.5501 4.48409 21.7282 4.93445 21.82V22.5976C4.93445 22.9878 5.2508 23.3042 5.64097 23.3042C6.03115 23.3042 6.3475 22.9878 6.3475 22.5976V21.82C6.79786 21.7282 7.21701 21.5501 7.58767 21.3043L8.1388 21.8555C8.4147 22.1314 8.86206 22.1315 9.13796 21.8555C9.4139 21.5796 9.4139 21.1322 9.13796 20.8563L8.58682 20.3052C8.83256 19.9345 9.01069 19.5154 9.1025 19.065H9.88011C10.2703 19.065 10.5866 18.7487 10.5866 18.3585C10.5866 17.9683 10.2703 17.652 9.88011 17.652ZM7.6426 19.0544C7.43002 19.6641 6.94654 20.1475 6.33686 20.3601C6.28064 20.0262 5.99088 19.7715 5.64097 19.7715C5.29107 19.7715 5.00131 20.0262 4.94509 20.3601C4.33541 20.1476 3.85197 19.6641 3.63935 19.0544C3.97327 18.9982 4.22793 18.7084 4.22793 18.3585C4.22793 18.0086 3.97327 17.7188 3.63935 17.6626C3.85193 17.0529 4.33541 16.5695 4.94509 16.3568C5.00131 16.6908 5.29107 16.9455 5.64097 16.9455C5.99088 16.9455 6.28064 16.6908 6.33686 16.3569C6.94654 16.5695 7.42998 17.0529 7.6426 17.6626C7.30868 17.7188 7.05402 18.0086 7.05402 18.3585C7.05402 18.7085 7.30868 18.9982 7.6426 19.0544Z" fill="#84C978" stroke="#84C978" stroke-width="0.5"/>
<path d="M13.4109 23.3043C13.3576 23.3043 13.3043 23.2982 13.252 23.2862C12.437 23.0981 12.1894 22.8286 11.4326 22.4851C11.0772 22.3239 10.9199 21.9051 11.0812 21.5498C11.2424 21.1945 11.6612 21.037 12.0165 21.1983C12.6388 21.4808 12.7425 21.7069 13.4109 21.8714C18.4114 20.6423 21.8891 16.2163 21.8891 11.0518V4.08366L13.4109 2.12713L4.93258 4.08366V9.73906C4.93258 10.1917 4.96022 10.6473 5.0148 11.0932C5.06218 11.4806 4.78659 11.8329 4.39928 11.8804C4.01207 11.9276 3.6596 11.6521 3.61222 11.2648C3.55071 10.7622 3.51953 10.2489 3.51953 9.73906V3.52163C3.51953 3.19261 3.74663 2.90717 4.06718 2.83321L13.252 0.713639C13.3565 0.689529 13.4652 0.689529 13.5697 0.713639L22.7545 2.83321C23.0751 2.90717 23.3022 3.19261 23.3022 3.52163V11.0518C23.3022 13.8797 22.3327 16.6557 20.5722 18.8686C18.8119 21.0814 16.325 22.6503 13.5697 23.2862C13.5175 23.2982 13.4642 23.3043 13.4109 23.3043Z" fill="#84C978" stroke="#84C978" stroke-width="0.5"/>
</svg>
