<svg width="36" height="36" viewBox="0 0 36 36" fill="none" xmlns="http://www.w3.org/2000/svg">
<path d="M9.76182 27.5V28.5H11.7618V27.5H9.76182ZM24.238 27.5V28.5H26.238V27.5H24.238ZM11.7618 27.5V27.0474H9.76182V27.5H11.7618ZM16.1904 22.6191H19.8094V20.6191H16.1904V22.6191ZM24.238 27.0474V27.5H26.238V27.0474H24.238ZM19.8094 22.6191C22.2553 22.6191 24.238 24.6016 24.238 27.0474H26.238C26.238 23.4969 23.3598 20.6191 19.8094 20.6191V22.6191ZM11.7618 27.0474C11.7618 24.6016 13.7445 22.6191 16.1904 22.6191V20.6191C12.6401 20.6191 9.76182 23.4969 9.76182 27.0474H11.7618ZM17.9999 9.76192C15.4489 9.76192 13.3809 11.8299 13.3809 14.381H15.3809C15.3809 12.9345 16.5535 11.7619 17.9999 11.7619V9.76192ZM22.619 14.381C22.619 11.8299 20.551 9.76192 17.9999 9.76192V11.7619C19.4464 11.7619 20.619 12.9345 20.619 14.381H22.619ZM17.9999 19C20.551 19 22.619 16.932 22.619 14.381H20.619C20.619 15.8274 19.4464 17 17.9999 17V19ZM17.9999 17C16.5535 17 15.3809 15.8274 15.3809 14.381H13.3809C13.3809 16.932 15.4489 19 17.9999 19V17ZM17.9999 29.6667C11.5566 29.6667 6.33325 24.4433 6.33325 18H4.33325C4.33325 25.5479 10.452 31.6667 17.9999 31.6667V29.6667ZM29.6666 18C29.6666 24.4433 24.4432 29.6667 17.9999 29.6667V31.6667C25.5478 31.6667 31.6666 25.5479 31.6666 18H29.6666ZM17.9999 6.33334C24.4432 6.33334 29.6666 11.5567 29.6666 18H31.6666C31.6666 10.4521 25.5478 4.33334 17.9999 4.33334V6.33334ZM17.9999 4.33334C10.452 4.33334 4.33325 10.4521 4.33325 18H6.33325C6.33325 11.5567 11.5566 6.33334 17.9999 6.33334V4.33334Z" fill="#FF0000"/>
</svg>
