<svg width="36" height="36" viewBox="0 0 36 36" fill="none" xmlns="http://www.w3.org/2000/svg">
<path d="M11.5357 25.5714V26.3214H13.0357V25.5714H11.5357ZM22.9643 25.5714V26.3214H24.4643V25.5714H22.9643ZM13.0357 25.5714V25.1427H11.5357V25.5714H13.0357ZM16.5714 21.6071H19.4286V20.1071H16.5714V21.6071ZM22.9643 25.1427V25.5714H24.4643V25.1427H22.9643ZM19.4286 21.6071C21.3813 21.6071 22.9643 23.19 22.9643 25.1427H24.4643C24.4643 22.3615 22.2097 20.1071 19.4286 20.1071V21.6071ZM13.0357 25.1427C13.0357 23.19 14.6187 21.6071 16.5714 21.6071V20.1071C13.7903 20.1071 11.5357 22.3615 11.5357 25.1427H13.0357ZM18 11.5357C16.0078 11.5357 14.3929 13.1507 14.3929 15.1429H15.8929C15.8929 13.9791 16.8363 13.0357 18 13.0357V11.5357ZM21.6071 15.1429C21.6071 13.1507 19.9922 11.5357 18 11.5357V13.0357C19.1637 13.0357 20.1071 13.9791 20.1071 15.1429H21.6071ZM18 18.75C19.9922 18.75 21.6071 17.135 21.6071 15.1429H20.1071C20.1071 16.3066 19.1637 17.25 18 17.25V18.75ZM18 17.25C16.8363 17.25 15.8929 16.3066 15.8929 15.1429H14.3929C14.3929 17.135 16.0078 18.75 18 18.75V17.25ZM18 27.25C12.8914 27.25 8.75 23.1086 8.75 18H7.25C7.25 23.9371 12.0629 28.75 18 28.75V27.25ZM27.25 18C27.25 23.1086 23.1086 27.25 18 27.25V28.75C23.9371 28.75 28.75 23.9371 28.75 18H27.25ZM18 8.75C23.1086 8.75 27.25 12.8914 27.25 18H28.75C28.75 12.0629 23.9371 7.25 18 7.25V8.75ZM18 7.25C12.0629 7.25 7.25 12.0629 7.25 18H8.75C8.75 12.8914 12.8914 8.75 18 8.75V7.25Z" fill="white"/>
</svg>
